<svg width="1" height="1" viewBox="0 0 1 1" fill="none" xmlns="http://www.w3.org/2000/svg">
<path d="M0 1L0.818074 1L0.820372 1L0.829565 1C0.829565 1 0.829565 1 0.831864 0.998358L0.834162 0.996716L0.83646 0.996716C0.83646 0.996716 0.83646 0.998358 0.838759 0.998358L0.838759 0.996716C0.841057 0.995074 0.845654 0.995074 0.847952 0.993432C0.847952 0.993432 0.847952 0.993432 0.850251 0.993432C0.852549 0.995074 0.857146 0.988506 0.857146 0.99179C0.859444 0.99179 0.859444 0.99179 0.857146 0.99179C0.857146 0.99179 0.859444 0.990148 0.857146 0.990148C0.854847 0.990148 0.859444 0.986864 0.854847 0.988506L0.854847 0.986864C0.857146 0.986864 0.854847 0.98358 0.854847 0.98358C0.854847 0.98358 0.854847 0.98358 0.857146 0.981938C0.859444 0.98358 0.859444 0.981938 0.861742 0.980296C0.864041 0.980296 0.861742 0.980296 0.861742 0.978653C0.864041 0.977011 0.864041 0.980296 0.864041 0.978653C0.866339 0.978653 0.864041 0.977011 0.866339 0.977011L0.866339 0.978653C0.866339 0.980296 0.866339 0.980296 0.868638 0.981938C0.868638 0.98358 0.873234 0.988506 0.875533 0.986864C0.882428 0.986864 0.896218 0.98358 0.887025 0.980296C0.889323 0.980296 0.887025 0.978653 0.887025 0.978653C0.889323 0.980296 0.887025 0.977011 0.887025 0.977011C0.887025 0.977011 0.884726 0.977011 0.887025 0.975369C0.889323 0.975369 0.889323 0.977011 0.889323 0.978653C0.889323 0.978653 0.887025 0.978653 0.887025 0.980296C0.896218 0.980296 0.914605 0.973727 0.903113 0.967159L0.903113 0.965517C0.903113 0.963875 0.903113 0.962233 0.900815 0.962233C0.900815 0.962233 0.898516 0.962233 0.898516 0.960591L0.896218 0.958949C0.896218 0.957307 0.896218 0.957307 0.89392 0.958949C0.891621 0.955665 0.896218 0.957307 0.89392 0.955665C0.89392 0.955665 0.89392 0.955665 0.896218 0.955665C0.898516 0.955665 0.898516 0.957307 0.898516 0.957307C0.900815 0.958949 0.898516 0.954023 0.896218 0.955665C0.89392 0.955665 0.89392 0.955665 0.891621 0.954023C0.891621 0.954023 0.891621 0.952381 0.889323 0.952381C0.889323 0.952381 0.889323 0.952381 0.891621 0.950739C0.891621 0.950739 0.891621 0.950739 0.89392 0.950739L0.896218 0.952381L0.896218 0.950739L0.898516 0.950739C0.900815 0.952381 0.900815 0.950739 0.900815 0.949097C0.903113 0.949097 0.905411 0.949097 0.90771 0.949097L0.905411 0.949097C0.905411 0.945813 0.898516 0.947455 0.898516 0.945813C0.900815 0.944171 0.900815 0.942529 0.898516 0.944171C0.898516 0.944171 0.898516 0.944171 0.898516 0.945813L0.896218 0.945813L0.896218 0.944171C0.896218 0.942529 0.896218 0.942529 0.89392 0.942529C0.89392 0.939245 0.889323 0.939245 0.887025 0.940887C0.887025 0.940887 0.887025 0.939245 0.884726 0.939245C0.884726 0.937603 0.884726 0.939245 0.884726 0.937603C0.884726 0.937603 0.884726 0.935961 0.882428 0.935961C0.877831 0.934319 0.882428 0.931034 0.880129 0.92775C0.882428 0.926108 0.880129 0.924466 0.877831 0.926108C0.877831 0.926108 0.880129 0.926108 0.880129 0.924466C0.877831 0.922824 0.880129 0.922824 0.877831 0.921182C0.877831 0.921182 0.877831 0.921182 0.877831 0.91954C0.877831 0.917898 0.880129 0.91954 0.882428 0.91954C0.882428 0.917898 0.880129 0.917898 0.880129 0.917898C0.882428 0.917898 0.880129 0.916256 0.880129 0.916256C0.880129 0.916256 0.880129 0.916256 0.877831 0.916256C0.875533 0.916256 0.875533 0.914614 0.873234 0.914614C0.870936 0.912972 0.873234 0.91133 0.870936 0.91133C0.873234 0.909688 0.873234 0.908046 0.868638 0.908046C0.868638 0.908046 0.870936 0.906404 0.868638 0.906404C0.868638 0.906404 0.868637 0.904762 0.866339 0.904762C0.866339 0.90312 0.866339 0.901478 0.864041 0.899836L0.864041 0.898194C0.866339 0.898194 0.864041 0.896552 0.866339 0.89491C0.866339 0.893268 0.866339 0.893268 0.866339 0.891626C0.868637 0.886699 0.870936 0.886699 0.873234 0.885057L0.875533 0.885057C0.875533 0.886699 0.875533 0.888342 0.877831 0.889984C0.877831 0.891626 0.880129 0.893268 0.880129 0.89491C0.882428 0.891626 0.880129 0.888342 0.877831 0.886699C0.880129 0.886699 0.880129 0.886699 0.880129 0.888342C0.877831 0.880131 0.873234 0.873563 0.868638 0.868637C0.870936 0.866995 0.866339 0.865353 0.866339 0.863711C0.870936 0.863711 0.868638 0.868637 0.873234 0.868637C0.873234 0.865353 0.870936 0.863711 0.868638 0.860427C0.868638 0.860427 0.868638 0.860427 0.870936 0.862069C0.873234 0.866995 0.875533 0.871921 0.882428 0.875205C0.89392 0.893268 0.880129 0.865353 0.875533 0.860427C0.875533 0.858785 0.873234 0.857143 0.873234 0.855501C0.875533 0.855501 0.877831 0.853859 0.880129 0.853859C0.880129 0.853859 0.882428 0.853859 0.882428 0.855501C0.882428 0.855501 0.882428 0.855501 0.884726 0.855501C0.884726 0.853859 0.882428 0.853859 0.887025 0.853859C0.887025 0.853859 0.887025 0.855501 0.891621 0.855501C0.889323 0.855501 0.889323 0.853859 0.891621 0.852217C0.891621 0.852217 0.891621 0.852217 0.891621 0.850575C0.89392 0.852217 0.896218 0.852217 0.89392 0.855501C0.896218 0.855501 0.896218 0.855501 0.896218 0.857143L0.896218 0.858785C0.896218 0.857143 0.89392 0.857143 0.891621 0.857143C0.891621 0.858785 0.89392 0.860427 0.89392 0.860427C0.89392 0.862069 0.896218 0.863711 0.898516 0.865353C0.896218 0.870279 0.900815 0.868637 0.903113 0.868637C0.905412 0.868637 0.905411 0.868637 0.90771 0.868637C0.90771 0.870279 0.90771 0.870279 0.910008 0.868637C0.912306 0.868637 0.910008 0.871921 0.914605 0.873563C0.914605 0.875205 0.914605 0.876847 0.916903 0.875205L0.919202 0.875205C0.919202 0.875205 0.919202 0.875205 0.919202 0.873563C0.916903 0.868637 0.914605 0.858785 0.90771 0.857143C0.90771 0.857143 0.90771 0.857143 0.905411 0.855501C0.90771 0.855501 0.905411 0.853859 0.905411 0.852217L0.90771 0.852217C0.90771 0.850575 0.905411 0.848933 0.905411 0.845649L0.905411 0.844007C0.905411 0.844007 0.905411 0.844007 0.90771 0.844007C0.910008 0.845649 0.910008 0.848933 0.912306 0.850575C0.912306 0.852217 0.914605 0.855501 0.914605 0.857143C0.914605 0.858785 0.916903 0.858785 0.916903 0.860427C0.916903 0.862069 0.916903 0.862069 0.919202 0.863711C0.919202 0.865353 0.9215 0.866995 0.9215 0.866995C0.923798 0.866995 0.9215 0.871921 0.923798 0.871921C0.923798 0.871921 0.928395 0.868637 0.926097 0.868637C0.926097 0.866995 0.923798 0.865353 0.926097 0.863711C0.926097 0.862069 0.923798 0.860427 0.9215 0.858785C0.9215 0.857143 0.919202 0.853859 0.919202 0.852217C0.919202 0.850575 0.919202 0.850575 0.916903 0.850575L0.916903 0.848933L0.919202 0.850575C0.919202 0.855501 0.928395 0.853859 0.932992 0.850575C0.93529 0.850575 0.932992 0.848933 0.93529 0.847291C0.939887 0.847291 0.937588 0.852217 0.942185 0.848933L0.944484 0.848933L0.946782 0.850575C0.946782 0.848933 0.946782 0.848933 0.946782 0.847291C0.94908 0.844007 0.946782 0.840722 0.951379 0.835796C0.951379 0.835796 0.951379 0.835796 0.951379 0.834154C0.94908 0.829228 0.94908 0.825944 0.944484 0.821018C0.939887 0.81445 0.93529 0.807882 0.930693 0.801314C0.930693 0.799672 0.928395 0.79803 0.928395 0.796387C0.930693 0.796387 0.930693 0.793103 0.928395 0.794745C0.928395 0.793103 0.926097 0.793103 0.926097 0.791461C0.926097 0.791461 0.926097 0.791461 0.928395 0.791461C0.928395 0.791461 0.928395 0.789819 0.926097 0.791461C0.923798 0.791461 0.926097 0.789819 0.926097 0.788177C0.926097 0.784893 0.923798 0.783251 0.926097 0.779967C0.928395 0.779967 0.928395 0.779967 0.928395 0.781609C0.928395 0.783251 0.930693 0.786535 0.932992 0.786535C0.932992 0.786535 0.932992 0.786535 0.932992 0.788177C0.932992 0.788177 0.932992 0.788177 0.93529 0.789819C0.937588 0.796387 0.942185 0.799672 0.944484 0.80624C0.944484 0.807882 0.944484 0.807882 0.946782 0.809524C0.946782 0.811166 0.94908 0.812808 0.94908 0.81445C0.946782 0.816092 0.94908 0.816092 0.951379 0.816092C0.951379 0.817734 0.953677 0.819376 0.955975 0.819376C0.955975 0.821018 0.958274 0.82266 0.958274 0.824302C0.960572 0.829228 0.96287 0.832512 0.969766 0.837438C0.969766 0.835796 0.967467 0.834154 0.967467 0.832512C0.969766 0.83087 0.965169 0.83087 0.967467 0.829228C0.969766 0.824302 0.969766 0.829228 0.974362 0.829228L0.974362 0.827586C0.976661 0.827586 0.978959 0.825944 0.974362 0.825944L0.974362 0.824302C0.974362 0.824302 0.974362 0.825944 0.976661 0.824302C0.974362 0.82266 0.974362 0.82266 0.974362 0.821018C0.976661 0.821018 0.974362 0.819376 0.974362 0.817734C0.976661 0.816092 0.974362 0.81445 0.972064 0.817734C0.972064 0.817734 0.972064 0.817734 0.969766 0.817734C0.967467 0.817734 0.969766 0.816092 0.969766 0.81445C0.972064 0.81445 0.972064 0.812808 0.969766 0.812808C0.969766 0.812808 0.969766 0.812808 0.967467 0.812808C0.967467 0.812808 0.967467 0.811166 0.965169 0.811166C0.965169 0.809524 0.962871 0.807882 0.962871 0.80624C0.962871 0.804598 0.955976 0.79803 0.962871 0.799672C0.962871 0.796387 0.960572 0.79803 0.958274 0.794745C0.958274 0.794745 0.958274 0.794745 0.958274 0.793103C0.958274 0.791461 0.958274 0.791461 0.958274 0.789819C0.958274 0.789819 0.958274 0.789819 0.958274 0.788177C0.958274 0.786535 0.955975 0.784893 0.955975 0.783251C0.955975 0.779967 0.953677 0.776683 0.951379 0.773399C0.951379 0.771757 0.951379 0.771757 0.951379 0.770115C0.951379 0.768473 0.94908 0.765189 0.946782 0.763547C0.946782 0.761905 0.946782 0.760263 0.944484 0.758621C0.944484 0.758621 0.944484 0.758621 0.944484 0.756979C0.944484 0.756979 0.944484 0.756979 0.946782 0.756979C0.951379 0.761905 0.953677 0.770115 0.958274 0.775041L0.958274 0.776683C0.958274 0.778325 0.958274 0.778325 0.960572 0.779967C0.960572 0.781609 0.960572 0.781609 0.962871 0.781609C0.965169 0.783251 0.962871 0.784893 0.965169 0.784893C0.965169 0.786535 0.960572 0.788177 0.965169 0.786535C0.962871 0.784893 0.965169 0.779967 0.960572 0.779967C0.960572 0.778325 0.960572 0.778325 0.958274 0.778325C0.958274 0.776683 0.958274 0.776683 0.958274 0.775041C0.958274 0.771757 0.951379 0.766831 0.953677 0.761905C0.955975 0.760263 0.953677 0.761905 0.953677 0.760263C0.94908 0.755337 0.94908 0.747126 0.942185 0.7422C0.942185 0.738916 0.939887 0.737274 0.937589 0.73399L0.937589 0.732348C0.93529 0.730706 0.937588 0.729064 0.93529 0.727422C0.932992 0.72578 0.932992 0.724138 0.930693 0.720854L0.932992 0.722496C0.93529 0.724138 0.937589 0.724138 0.937589 0.72578C0.939887 0.72578 0.939887 0.724138 0.939887 0.724138C0.937589 0.72578 0.944484 0.729064 0.946782 0.730706C0.951379 0.732348 0.951379 0.735632 0.955975 0.737274C0.953677 0.73399 0.951379 0.729064 0.94908 0.727422C0.951379 0.724138 0.946782 0.719212 0.944484 0.719212L0.944484 0.71757C0.946782 0.714286 0.937588 0.715928 0.93529 0.714286C0.93529 0.714286 0.932992 0.712644 0.930693 0.712644L0.930693 0.714286C0.928395 0.714286 0.926097 0.712644 0.926097 0.712644L0.923798 0.711002C0.923798 0.711002 0.923798 0.711002 0.923798 0.70936C0.923798 0.706075 0.919202 0.704433 0.919202 0.701149C0.919202 0.701149 0.919202 0.701149 0.9215 0.701149C0.9215 0.699507 0.919202 0.699507 0.919202 0.699507C0.919202 0.699507 0.919202 0.699507 0.916903 0.697865C0.916903 0.696223 0.916903 0.696223 0.914605 0.694581C0.914605 0.692939 0.912306 0.692939 0.912306 0.691297C0.912306 0.688013 0.912306 0.686371 0.90771 0.686371L0.90771 0.684729C0.90771 0.683087 0.90771 0.683087 0.905411 0.683087C0.903113 0.684729 0.903113 0.684729 0.905411 0.686371L0.905411 0.684729C0.905411 0.683087 0.900815 0.679803 0.898516 0.678161C0.898516 0.678161 0.898516 0.678161 0.898516 0.676519C0.898516 0.676519 0.898516 0.678161 0.896218 0.676519C0.896218 0.674877 0.89392 0.673235 0.89392 0.673235L0.89392 0.671593C0.896218 0.669951 0.89392 0.668309 0.89392 0.666667C0.896218 0.669951 0.916903 0.661741 0.90771 0.658456C0.910008 0.658456 0.90771 0.656814 0.90771 0.656814C0.910008 0.658456 0.90771 0.655172 0.90771 0.655172C0.90771 0.655172 0.905411 0.655172 0.90771 0.65353C0.910008 0.65353 0.910008 0.655172 0.910008 0.656814C0.910008 0.656814 0.90771 0.656814 0.90771 0.658456C0.916903 0.658456 0.93529 0.651888 0.923798 0.64532L0.923798 0.643678C0.923798 0.642036 0.923798 0.640394 0.9215 0.640394C0.9215 0.640394 0.919202 0.640394 0.919202 0.638752L0.916903 0.63711C0.916903 0.635468 0.916903 0.635468 0.914605 0.63711C0.912307 0.633826 0.916903 0.635468 0.914605 0.633826C0.914605 0.633826 0.914605 0.633826 0.916903 0.633826C0.919202 0.633826 0.919202 0.635468 0.919202 0.635468C0.9215 0.63711 0.919202 0.632184 0.916903 0.633826C0.914605 0.633826 0.914605 0.633826 0.912306 0.632184C0.912306 0.632184 0.912306 0.630542 0.910008 0.630542C0.910008 0.630542 0.910008 0.630542 0.912306 0.6289C0.912306 0.6289 0.912307 0.6289 0.914605 0.6289L0.916903 0.630542L0.916903 0.6289L0.919202 0.6289C0.9215 0.630542 0.9215 0.6289 0.9215 0.627258C0.923798 0.627258 0.926097 0.627258 0.928395 0.627258L0.926097 0.627258C0.926097 0.623974 0.919202 0.625616 0.919202 0.623974C0.9215 0.622332 0.9215 0.62069 0.919202 0.622332C0.919202 0.622332 0.919202 0.622332 0.919202 0.623974L0.916903 0.623974L0.916903 0.622332C0.916903 0.62069 0.916903 0.62069 0.914605 0.62069C0.914605 0.617406 0.910008 0.617406 0.90771 0.619048C0.90771 0.619048 0.90771 0.617406 0.905411 0.617406C0.905411 0.615764 0.905411 0.617406 0.905411 0.615764C0.905411 0.615764 0.905412 0.614121 0.903113 0.614121C0.898516 0.612479 0.903113 0.609195 0.900815 0.605911C0.903113 0.604269 0.900815 0.602627 0.898516 0.604269C0.898516 0.604269 0.900815 0.604269 0.900815 0.602627C0.898516 0.600985 0.900815 0.600985 0.898516 0.599343C0.898516 0.599343 0.898516 0.599343 0.898516 0.597701C0.898516 0.596059 0.900815 0.597701 0.903113 0.597701C0.903113 0.596059 0.900815 0.596059 0.900815 0.596059C0.903113 0.596059 0.900815 0.594417 0.900815 0.594417C0.900815 0.594417 0.900815 0.594417 0.898516 0.594417C0.896218 0.594417 0.896218 0.592775 0.89392 0.592775C0.891621 0.591133 0.89392 0.589491 0.891621 0.589491C0.89392 0.587849 0.893919 0.586207 0.889323 0.586207C0.889323 0.586207 0.891621 0.584565 0.889323 0.584565C0.889323 0.584565 0.889323 0.582923 0.887024 0.582923C0.887024 0.581281 0.887025 0.579639 0.884726 0.577997L0.884726 0.576355C0.887025 0.576355 0.884726 0.574713 0.887024 0.573071C0.887024 0.571429 0.887024 0.571429 0.887024 0.569786C0.889323 0.568144 0.891621 0.568144 0.89392 0.568144L0.896218 0.568144C0.896218 0.569787 0.896218 0.571429 0.898516 0.573071C0.898516 0.574713 0.900815 0.576355 0.900815 0.577997C0.903113 0.574713 0.900815 0.571429 0.898516 0.569786C0.900815 0.569786 0.900815 0.569787 0.900815 0.571429C0.898516 0.56486 0.893919 0.559934 0.889323 0.553366C0.891621 0.551724 0.887024 0.550082 0.887024 0.54844C0.891621 0.54844 0.889323 0.553366 0.89392 0.553366C0.89392 0.550082 0.891621 0.54844 0.889323 0.545156C0.889323 0.545156 0.889323 0.545156 0.891621 0.546798C0.89392 0.551724 0.896218 0.55665 0.903113 0.559934C0.914605 0.577997 0.900815 0.550082 0.896218 0.545156C0.896218 0.543514 0.89392 0.541872 0.89392 0.54023C0.896218 0.54023 0.898516 0.538588 0.900815 0.538588C0.900815 0.538588 0.903113 0.538588 0.903113 0.54023C0.903113 0.54023 0.903113 0.54023 0.905411 0.54023C0.905411 0.538588 0.903113 0.538588 0.90771 0.538588C0.90771 0.538588 0.90771 0.54023 0.912306 0.54023C0.910008 0.54023 0.910008 0.538588 0.912306 0.536946C0.912306 0.536946 0.912306 0.536946 0.912306 0.535304C0.914605 0.536946 0.916903 0.536946 0.914605 0.54023C0.916903 0.54023 0.916903 0.54023 0.916903 0.541872L0.916903 0.543514C0.916903 0.541872 0.914605 0.541872 0.912306 0.541872C0.912306 0.543514 0.914605 0.545156 0.914605 0.545156C0.914605 0.546798 0.916903 0.54844 0.919202 0.550082C0.919202 0.553366 0.923798 0.553366 0.928395 0.553366C0.930693 0.553366 0.930693 0.553366 0.932992 0.553366C0.932992 0.555008 0.932992 0.555008 0.93529 0.553366C0.937588 0.553366 0.93529 0.55665 0.939887 0.558292C0.939887 0.559934 0.939887 0.561576 0.942185 0.559934L0.944484 0.559934C0.944484 0.559934 0.944484 0.559934 0.944484 0.558292C0.942185 0.553366 0.939887 0.543514 0.932992 0.541872C0.932992 0.541872 0.932992 0.541872 0.930693 0.54023C0.932992 0.54023 0.930693 0.538588 0.930693 0.536946L0.932992 0.536946C0.932992 0.535304 0.930693 0.533662 0.930693 0.530378L0.930693 0.528736C0.930693 0.528736 0.930693 0.528736 0.932992 0.528736C0.93529 0.530378 0.93529 0.533662 0.937589 0.535304C0.937589 0.536946 0.939887 0.54023 0.939887 0.541872C0.939887 0.543514 0.942185 0.543514 0.942185 0.545156C0.942185 0.546798 0.942185 0.546798 0.944484 0.54844C0.944484 0.550082 0.946782 0.551724 0.946782 0.551724C0.94908 0.551724 0.946782 0.55665 0.94908 0.55665C0.94908 0.55665 0.953677 0.553366 0.951379 0.553366C0.951379 0.551724 0.94908 0.550082 0.951379 0.54844C0.951379 0.546798 0.94908 0.545156 0.946782 0.543514C0.946782 0.541872 0.944484 0.538588 0.944484 0.536946C0.944484 0.535304 0.944484 0.535304 0.942185 0.535304L0.942185 0.533662L0.944484 0.535304L0.944484 0.536946C0.94908 0.538588 0.953677 0.536946 0.955975 0.535304C0.958274 0.535304 0.955975 0.533662 0.958274 0.53202C0.96287 0.53202 0.960572 0.536946 0.965169 0.533662L0.967467 0.533662L0.969766 0.535304C0.969766 0.533662 0.969766 0.533662 0.969766 0.53202C0.972064 0.530378 0.972064 0.527094 0.972064 0.52381C0.972064 0.522167 0.976661 0.522167 0.974362 0.520525C0.974362 0.520525 0.974362 0.520525 0.974362 0.518883C0.972064 0.513957 0.972064 0.510673 0.967467 0.505747C0.96287 0.499179 0.958274 0.492611 0.953677 0.486043C0.953677 0.484401 0.951379 0.482759 0.951379 0.481117C0.953677 0.481117 0.953677 0.477832 0.951379 0.479475C0.951379 0.477832 0.94908 0.477833 0.94908 0.47619C0.94908 0.47619 0.94908 0.47619 0.951379 0.47619C0.951379 0.47619 0.951379 0.474548 0.94908 0.47619C0.946782 0.47619 0.94908 0.474548 0.94908 0.472906C0.94908 0.469622 0.946782 0.46798 0.94908 0.464696C0.951379 0.464696 0.951379 0.464696 0.951379 0.466338C0.951379 0.46798 0.951379 0.46798 0.953677 0.469622C0.953677 0.471264 0.955975 0.471264 0.955975 0.472906C0.955975 0.472906 0.955975 0.472906 0.955975 0.474548C0.955975 0.474548 0.955975 0.474548 0.958274 0.47619C0.960572 0.482759 0.965169 0.486043 0.967467 0.492611C0.967467 0.494253 0.967467 0.494253 0.969766 0.495895C0.969766 0.497537 0.972064 0.499179 0.972064 0.500821C0.969766 0.502463 0.972064 0.502463 0.974362 0.502463C0.974362 0.504105 0.976661 0.505747 0.978959 0.505747C0.978959 0.507389 0.981257 0.509031 0.981257 0.510673C0.983556 0.515599 0.985854 0.518883 0.992749 0.52381C0.992749 0.522167 0.990451 0.520525 0.990451 0.518883C0.992749 0.517241 0.988153 0.517241 0.990451 0.515599C0.992749 0.510673 0.992749 0.515599 0.997346 0.515599L0.997346 0.513957C0.999644 0.513957 1.00194 0.512315 0.997346 0.512315L0.997346 0.510673C0.997346 0.510673 0.997346 0.512315 0.999644 0.510673C0.997346 0.509031 0.997346 0.509031 0.997346 0.507389C0.999644 0.507389 0.997346 0.505747 0.997346 0.504105C0.999644 0.502463 0.997346 0.500821 0.995048 0.504105C0.995048 0.504105 0.995048 0.504105 0.992749 0.504105C0.990451 0.504105 0.992749 0.502463 0.992749 0.500821C0.995048 0.500821 0.995048 0.499179 0.992749 0.499179C0.992749 0.499179 0.992749 0.499179 0.990451 0.499179C0.990451 0.499179 0.990451 0.497537 0.988153 0.497537C0.988153 0.495895 0.985854 0.494253 0.985854 0.492611C0.985854 0.490969 0.978959 0.484401 0.985854 0.486043C0.985854 0.482759 0.983556 0.484401 0.981257 0.481117C0.981257 0.481117 0.981257 0.481117 0.981257 0.479474C0.981257 0.477832 0.981257 0.477833 0.981257 0.47619C0.981257 0.47619 0.981257 0.47619 0.981257 0.474548C0.981257 0.472906 0.978959 0.471264 0.978959 0.469622C0.978959 0.466338 0.976661 0.463054 0.974362 0.45977C0.974362 0.458128 0.974362 0.458128 0.974362 0.456486C0.974362 0.454844 0.972064 0.45156 0.969766 0.449918C0.969766 0.448276 0.969766 0.446634 0.967467 0.444992C0.967467 0.444992 0.967467 0.444992 0.967467 0.44335C0.967467 0.44335 0.967467 0.44335 0.969766 0.44335C0.974362 0.448276 0.976661 0.456486 0.981257 0.461412L0.981257 0.463054C0.981257 0.464696 0.981258 0.464696 0.983556 0.466338C0.983556 0.46798 0.983556 0.46798 0.985854 0.46798C0.988153 0.469622 0.985854 0.471264 0.988153 0.471264C0.988153 0.472906 0.983556 0.474548 0.988153 0.472906C0.985854 0.471264 0.988153 0.466338 0.983556 0.466338C0.983556 0.464696 0.983556 0.464696 0.981257 0.464696C0.981257 0.463054 0.981257 0.463054 0.981257 0.461412C0.981257 0.458128 0.974362 0.453202 0.976661 0.448276C0.978959 0.446634 0.976661 0.448276 0.976661 0.446634C0.972064 0.441708 0.972064 0.433498 0.965169 0.428571C0.965169 0.425287 0.962871 0.423645 0.960572 0.420361L0.960572 0.418719C0.958274 0.417077 0.960572 0.415435 0.958274 0.413793C0.955975 0.412151 0.955975 0.410509 0.953677 0.407225L0.955975 0.408867C0.958274 0.410509 0.960572 0.410509 0.960572 0.412151C0.962871 0.412151 0.962871 0.410509 0.962871 0.410509C0.960572 0.412151 0.967467 0.415435 0.969766 0.417077C0.974362 0.418719 0.974362 0.422003 0.978959 0.423645C0.976661 0.420361 0.974362 0.415435 0.972064 0.413793C0.974362 0.410509 0.969766 0.405583 0.967467 0.405583L0.967467 0.403941C0.969766 0.400657 0.960572 0.402299 0.958274 0.400657C0.958274 0.400657 0.955975 0.399015 0.953677 0.399015L0.953677 0.400657C0.951379 0.400657 0.94908 0.399015 0.94908 0.399015C0.919202 0.425287 0.919202 0.425287 0.919202 0.425287C0.919202 0.425287 0.919202 0.425287 0.919202 0.423645C0.9215 0.420361 0.914605 0.418719 0.916903 0.415435C0.916903 0.415435 0.916903 0.415435 0.919202 0.415435C0.919202 0.413793 0.916903 0.413793 0.916903 0.413793C0.916903 0.413793 0.916903 0.413793 0.914605 0.412151C0.914605 0.410509 0.914605 0.410509 0.912306 0.408867C0.912306 0.407225 0.910008 0.407225 0.910008 0.405583C0.910008 0.402299 0.910008 0.400657 0.905411 0.400657L0.905411 0.399015C0.905411 0.397373 0.905412 0.397373 0.903113 0.397373C0.900815 0.399015 0.900815 0.399015 0.903113 0.400657L0.903113 0.399015C0.903113 0.397373 0.898516 0.394089 0.896218 0.392447C0.896218 0.392447 0.896218 0.392447 0.896218 0.390805C0.896218 0.390805 0.896218 0.392447 0.89392 0.390805C0.89392 0.389163 0.891621 0.387521 0.891621 0.387521C0.889323 0.387521 0.889323 0.389163 0.889323 0.390805C0.887024 0.389163 0.887025 0.385878 0.884726 0.384236C0.887025 0.382594 0.882428 0.380952 0.882428 0.377668C0.882428 0.37931 0.884726 0.37931 0.887024 0.37931L0.887024 0.380952C0.884726 0.382594 0.887024 0.384236 0.889323 0.384236C0.889323 0.385878 0.889323 0.385878 0.891621 0.387521C0.89392 0.387521 0.89392 0.385878 0.891621 0.384236C0.89392 0.382594 0.891621 0.380952 0.891621 0.37931C0.89392 0.382594 0.914605 0.374384 0.905411 0.3711C0.90771 0.3711 0.905411 0.369458 0.905411 0.369458C0.90771 0.3711 0.905411 0.367816 0.905411 0.367816C0.905411 0.367816 0.903113 0.367816 0.905411 0.366174C0.90771 0.366174 0.90771 0.367816 0.90771 0.369458C0.90771 0.369458 0.905411 0.369458 0.905411 0.3711C0.914605 0.3711 0.932992 0.364532 0.9215 0.357964L0.9215 0.356322C0.9215 0.35468 0.9215 0.353038 0.919202 0.353038C0.919202 0.353038 0.916903 0.353038 0.916903 0.351396L0.914605 0.349754C0.914605 0.348112 0.914605 0.348112 0.912306 0.349754C0.910008 0.34647 0.914605 0.348112 0.912306 0.34647C0.912306 0.34647 0.912307 0.34647 0.914605 0.34647C0.916903 0.34647 0.916903 0.348112 0.916903 0.348112C0.919202 0.349754 0.916903 0.344828 0.914605 0.34647C0.912307 0.34647 0.912306 0.34647 0.910008 0.344828C0.910008 0.344828 0.910008 0.343186 0.90771 0.343186C0.90771 0.343186 0.90771 0.343186 0.910008 0.341544C0.910008 0.341544 0.910008 0.341544 0.912306 0.341544L0.914605 0.343186L0.914605 0.341544L0.916903 0.341544C0.919202 0.343186 0.919202 0.341543 0.919202 0.339901C0.9215 0.339901 0.932992 0.339901 0.926097 0.339901L0.923798 0.339901C0.923798 0.336617 0.916903 0.338259 0.916903 0.336617C0.919202 0.334975 0.919202 0.333333 0.916903 0.334975C0.916903 0.334975 0.916903 0.334975 0.916903 0.336617L0.914605 0.336617L0.914605 0.334975C0.914605 0.333333 0.914605 0.333333 0.912306 0.333333C0.912306 0.330049 0.90771 0.330049 0.905411 0.331691C0.905411 0.331691 0.905412 0.330049 0.903113 0.330049C0.903113 0.328407 0.903113 0.330049 0.903113 0.328407C0.903113 0.328407 0.903113 0.326765 0.900815 0.326765C0.896218 0.325123 0.900815 0.321839 0.898516 0.318555C0.900815 0.316913 0.898516 0.315271 0.896218 0.316913C0.896218 0.316913 0.898516 0.316913 0.898516 0.315271C0.896218 0.313629 0.898516 0.313629 0.896218 0.311987C0.896218 0.311987 0.896218 0.311987 0.896218 0.310345C0.896218 0.308703 0.898516 0.310345 0.900815 0.310345C0.900815 0.308703 0.898516 0.308703 0.898516 0.308703C0.900815 0.308703 0.898516 0.307061 0.898516 0.307061C0.898516 0.307061 0.898516 0.307061 0.896218 0.307061C0.893919 0.307061 0.89392 0.305419 0.891621 0.305419C0.889323 0.303777 0.891621 0.302135 0.889323 0.302135C0.891621 0.300493 0.891621 0.298851 0.887024 0.298851C0.887024 0.298851 0.889323 0.297209 0.887024 0.297209C0.887024 0.297209 0.887025 0.295566 0.884726 0.295566C0.884726 0.293924 0.884726 0.292282 0.882428 0.29064L0.882428 0.288998C0.884726 0.288998 0.882428 0.287356 0.884726 0.285714C0.884726 0.284072 0.884726 0.284072 0.884726 0.28243C0.887025 0.280788 0.889323 0.280788 0.891621 0.280788L0.89392 0.280788C0.89392 0.28243 0.893919 0.284072 0.896218 0.285714C0.896218 0.287356 0.898516 0.288998 0.898516 0.29064C0.900815 0.287356 0.898516 0.284072 0.896218 0.28243C0.898516 0.28243 0.898516 0.28243 0.898516 0.284072C0.896218 0.277504 0.891621 0.272578 0.887024 0.26601C0.889323 0.264368 0.884726 0.262726 0.884726 0.261084C0.889323 0.261084 0.887025 0.26601 0.891621 0.26601C0.891621 0.262726 0.889323 0.261084 0.887024 0.2578C0.887024 0.2578 0.887024 0.2578 0.889323 0.259442C0.891621 0.264368 0.893919 0.269294 0.900815 0.272578C0.912306 0.29064 0.898516 0.262726 0.89392 0.2578C0.89392 0.256158 0.891621 0.254516 0.891621 0.252874C0.89392 0.252874 0.896218 0.251231 0.898516 0.251231C0.898516 0.251231 0.900815 0.251231 0.900815 0.252874C0.900815 0.252874 0.900815 0.252874 0.903113 0.252874C0.903113 0.251231 0.900815 0.251231 0.905411 0.251231C0.905411 0.251231 0.905411 0.252874 0.910008 0.252874C0.90771 0.252874 0.90771 0.251232 0.910008 0.249589C0.910008 0.249589 0.910008 0.24959 0.910008 0.247947C0.912306 0.24959 0.914605 0.249589 0.912306 0.252874C0.914605 0.252874 0.914605 0.252873 0.914605 0.254516L0.914605 0.256158C0.914605 0.254516 0.912306 0.254516 0.910008 0.254516C0.910008 0.256158 0.912306 0.2578 0.912306 0.2578C0.912306 0.259442 0.914605 0.261084 0.916903 0.262726C0.916903 0.26601 0.9215 0.26601 0.926097 0.26601C0.928395 0.26601 0.928395 0.26601 0.930693 0.26601C0.930693 0.267652 0.930693 0.267652 0.932992 0.26601C0.93529 0.26601 0.932992 0.269294 0.937589 0.270936C0.937589 0.272578 0.937588 0.27422 0.939887 0.272578L0.942185 0.272578C0.942185 0.272578 0.942185 0.272578 0.942185 0.270936C0.939887 0.26601 0.937589 0.256158 0.930693 0.254516C0.930693 0.254516 0.930693 0.254516 0.928395 0.252874C0.930693 0.252874 0.928395 0.251232 0.928395 0.249589L0.930693 0.249589C0.930693 0.247947 0.928395 0.246305 0.928395 0.243021L0.928395 0.241379C0.928395 0.241379 0.928395 0.241379 0.930693 0.241379C0.932992 0.243021 0.932992 0.246305 0.93529 0.247947C0.93529 0.24959 0.937589 0.252873 0.937589 0.254516C0.937589 0.256158 0.939887 0.259442 0.942185 0.261084C0.942185 0.262726 0.944484 0.264368 0.944484 0.264368C0.946782 0.264368 0.944484 0.269294 0.946782 0.269294C0.946782 0.269294 0.951379 0.26601 0.94908 0.26601C0.94908 0.264368 0.946782 0.262726 0.94908 0.261084C0.94908 0.259442 0.946782 0.2578 0.944484 0.256158C0.944484 0.254516 0.942185 0.251232 0.942185 0.249589C0.942185 0.247947 0.942185 0.247947 0.939887 0.247947L0.939887 0.246305L0.942185 0.247947L0.942185 0.249589C0.946782 0.251232 0.951379 0.249589 0.953677 0.247947C0.955975 0.247947 0.953677 0.246305 0.955975 0.244663C0.960572 0.244663 0.958274 0.249589 0.962871 0.246305L0.965169 0.246305L0.967467 0.247947C0.967467 0.246305 0.967467 0.246305 0.967467 0.244663C0.969766 0.241379 0.967467 0.238095 0.972064 0.233169C0.972064 0.233169 0.972064 0.233169 0.972064 0.231527C0.969766 0.226601 0.969766 0.223317 0.965169 0.218391C0.960572 0.211823 0.955975 0.205254 0.951379 0.198686C0.951379 0.197044 0.94908 0.195402 0.94908 0.19376C0.951379 0.19376 0.951379 0.190476 0.94908 0.192118C0.94908 0.190476 0.946782 0.190476 0.946782 0.188834C0.946782 0.188834 0.946782 0.188834 0.94908 0.188834C0.94908 0.188834 0.94908 0.187192 0.946782 0.188834C0.944484 0.188834 0.946782 0.187192 0.946782 0.18555C0.946782 0.182266 0.944484 0.180624 0.946782 0.17734C0.94908 0.17734 0.94908 0.17734 0.94908 0.178982C0.94908 0.180624 0.94908 0.180624 0.951379 0.182266C0.951379 0.183908 0.953677 0.183908 0.953677 0.18555C0.953677 0.18555 0.953677 0.18555 0.953677 0.187192C0.953677 0.187192 0.953677 0.187192 0.955975 0.188834C0.958274 0.195402 0.962871 0.198686 0.965169 0.205254C0.965169 0.208539 0.969766 0.210181 0.969766 0.213465C0.967467 0.215107 0.969766 0.215107 0.972064 0.215107C0.974362 0.218391 0.976661 0.221675 0.978959 0.223317C0.981257 0.228243 0.983556 0.231527 0.990451 0.236453C0.990451 0.234811 0.988153 0.233169 0.988153 0.231527C0.990451 0.229885 0.988153 0.229885 0.988153 0.228243C0.990451 0.223317 0.990451 0.228243 0.995048 0.228243L0.995048 0.226601C0.997346 0.226601 0.999644 0.224959 0.995048 0.224959L0.995048 0.223317C0.995048 0.223317 0.995048 0.224959 0.997346 0.223317C0.995048 0.221675 0.995048 0.221675 0.995048 0.220033C0.997346 0.220033 0.995048 0.218391 0.995048 0.216749C0.997346 0.215107 0.995048 0.213465 0.992749 0.216749C0.992749 0.216749 0.992749 0.216749 0.990451 0.216749C0.988153 0.216749 0.990451 0.215107 0.990451 0.213465C0.992749 0.213465 0.992749 0.211823 0.990451 0.211823C0.990451 0.211823 0.990451 0.211823 0.988153 0.211823C0.988153 0.211823 0.988153 0.210181 0.985854 0.210181C0.985854 0.208539 0.983556 0.206897 0.983556 0.205254C0.983556 0.203612 0.976661 0.197044 0.983556 0.198686C0.983556 0.195402 0.981257 0.197044 0.978959 0.19376C0.978959 0.19376 0.978959 0.19376 0.978959 0.192118C0.978959 0.190476 0.978959 0.190476 0.978959 0.188834C0.978959 0.188834 0.978959 0.188834 0.978959 0.187192C0.978959 0.18555 0.976661 0.183908 0.976661 0.182266C0.976661 0.178982 0.974362 0.175698 0.972064 0.172414C0.972064 0.170772 0.972064 0.170772 0.972064 0.16913C0.972064 0.167488 0.969766 0.164204 0.967467 0.162562C0.967467 0.16092 0.967467 0.159277 0.965169 0.157635C0.965169 0.157635 0.965169 0.157635 0.967467 0.155993C0.967467 0.155993 0.967467 0.155993 0.969766 0.155993C0.974362 0.16092 0.976661 0.16913 0.981257 0.174056L0.981257 0.175698C0.981257 0.17734 0.981257 0.17734 0.983556 0.178982C0.983556 0.180624 0.983556 0.180624 0.985854 0.180624C0.988153 0.182266 0.985854 0.183908 0.988153 0.183908C0.988153 0.18555 0.983556 0.187192 0.988153 0.18555C0.985854 0.183908 0.988153 0.178982 0.983556 0.178982C0.983556 0.17734 0.983556 0.17734 0.981257 0.17734C0.981257 0.175698 0.981257 0.175698 0.981257 0.174056C0.981257 0.170772 0.974362 0.165846 0.976661 0.16092C0.978959 0.159278 0.976661 0.160919 0.976661 0.159277C0.972064 0.154351 0.972064 0.146141 0.965169 0.141215C0.965169 0.137931 0.962871 0.136289 0.960572 0.133005L0.960572 0.131363C0.958274 0.129721 0.960572 0.128079 0.958274 0.126437C0.955975 0.124795 0.955975 0.123153 0.953677 0.119869L0.955975 0.121511C0.958274 0.123153 0.960572 0.123153 0.960572 0.124795C0.962871 0.124795 0.962871 0.123153 0.962871 0.123153C0.960572 0.124795 0.967467 0.128079 0.969766 0.129721C0.974362 0.131363 0.974362 0.134647 0.978959 0.136289C0.976661 0.133005 0.974362 0.128079 0.972064 0.126437C0.974362 0.123153 0.969766 0.119869 0.967467 0.118227C0.967467 0.118227 0.967467 0.118227 0.965169 0.118227L0.965169 0.116585C0.967467 0.1133 0.958274 0.114943 0.955975 0.113301C0.955975 0.113301 0.953677 0.111658 0.951379 0.111658L0.951379 0.113301C0.94908 0.113301 0.946782 0.111658 0.946782 0.111658L0.944484 0.110016C0.944484 0.110016 0.944484 0.110016 0.944484 0.108374C0.946782 0.10509 0.939887 0.103448 0.942185 0.100164C0.942185 0.100164 0.942185 0.100164 0.944484 0.100164C0.944484 0.0985222 0.942185 0.0985221 0.942185 0.0985221C0.942185 0.0985221 0.942185 0.0985221 0.939887 0.0968801C0.939887 0.0952381 0.939887 0.095238 0.937589 0.093596C0.937589 0.091954 0.93529 0.091954 0.93529 0.090312C0.93529 0.0870279 0.93529 0.0853858 0.930693 0.0853858L0.930693 0.0837438C0.930693 0.0821018 0.930693 0.0821018 0.928395 0.0821018C0.926097 0.0837438 0.926097 0.0837438 0.928395 0.0853858L0.928395 0.0837438C0.928395 0.0821018 0.923798 0.0788177 0.9215 0.0771757C0.9215 0.0771757 0.9215 0.0771757 0.9215 0.0755337C0.9215 0.0755337 0.9215 0.0771757 0.919202 0.0755337C0.919202 0.0738916 0.916903 0.0722495 0.916903 0.0722495C0.914605 0.0722495 0.914605 0.0738916 0.914605 0.0755337C0.912306 0.0738916 0.912306 0.0706075 0.910008 0.0689655C0.912306 0.0673235 0.90771 0.0656814 0.90771 0.0623974C0.90771 0.0640394 0.910008 0.0640394 0.912306 0.0640394L0.912306 0.0656814C0.910008 0.0673234 0.912306 0.0689655 0.914605 0.0689655C0.914605 0.0706075 0.914605 0.0706075 0.916903 0.0722495C0.919202 0.0722495 0.919202 0.0706075 0.916903 0.0689655C0.919202 0.0673235 0.916903 0.0656814 0.916903 0.0640394C0.916903 0.0623973 0.916903 0.0623974 0.916903 0.0623974C0.916903 0.0623974 0.916903 0.0623974 0.914605 0.0607553C0.916903 0.0591133 0.914605 0.0574713 0.914605 0.0558292L0.914605 0.0541872C0.914605 0.0541872 0.914605 0.0541872 0.912306 0.0541872C0.912306 0.0541872 0.912306 0.0541872 0.914605 0.0541872C0.912306 0.0525452 0.912306 0.0492611 0.910008 0.0476191C0.910008 0.045977 0.90771 0.0426929 0.905411 0.0410508C0.905411 0.0410508 0.905411 0.0410508 0.905411 0.0394088C0.905411 0.0377668 0.903113 0.0344827 0.900815 0.0328407C0.900815 0.0311986 0.898516 0.0295566 0.898516 0.0295566C0.898516 0.0295566 0.898516 0.0295567 0.898516 0.0279146L0.898516 0.0262726L0.898516 0.0246305C0.896218 0.0246305 0.898516 0.0229885 0.898516 0.0213465C0.896218 0.0180624 0.89392 0.0147783 0.891621 0.0098522C0.891621 0.00656813 0.889323 0.00328401 0.887024 -6.29875e-08L-4.37114e-08 -2.42144e-08L0 1Z" fill="#EBEEF3"/>
</svg>
