<svg width="1" height="1" viewBox="0 0 1 1" fill="none" xmlns="http://www.w3.org/2000/svg">
  <path d="M0 0V0.818074V0.820372V0.829565C0 0.829565 0 0.829565 0.00164204 0.831864L0.00328407 0.834162V0.83646C0.00328407 0.83646 0.00164204 0.83646 0.00164204 0.838759H0.00328407C0.00492611 0.841057 0.00492611 0.845654 0.00656814 0.847952C0.00656814 0.847952 0.00656814 0.847952 0.00656814 0.850251C0.00492611 0.852549 0.0114943 0.857146 0.00821018 0.857146C0.00821018 0.859444 0.00821018 0.859444 0.00821018 0.857146C0.00821018 0.857146 0.00985222 0.859444 0.00985222 0.857146C0.00985222 0.854847 0.0131363 0.859444 0.0114943 0.854847H0.0131363C0.0131363 0.857146 0.0164204 0.854847 0.0164204 0.854847C0.0164204 0.854847 0.0164204 0.854847 0.0180624 0.857146C0.0164204 0.859444 0.0180624 0.859444 0.0197044 0.861742C0.0197044 0.864041 0.0197044 0.861742 0.0213465 0.861742C0.0229885 0.864041 0.0197044 0.864041 0.0213465 0.864041C0.0213465 0.866339 0.0229885 0.864041 0.0229885 0.866339H0.0213465C0.0197044 0.866339 0.0197044 0.866339 0.0180624 0.868638C0.0164204 0.868638 0.0114943 0.873234 0.0131363 0.875533C0.0131363 0.882428 0.0164204 0.896218 0.0197044 0.887025C0.0197044 0.889323 0.0213465 0.887025 0.0213465 0.887025C0.0197044 0.889323 0.0229885 0.887025 0.0229885 0.887025C0.0229885 0.887025 0.0229885 0.884726 0.0246305 0.887025C0.0246305 0.889323 0.0229885 0.889323 0.0213465 0.889323C0.0213465 0.889323 0.0213465 0.887025 0.0197044 0.887025C0.0197044 0.896218 0.0262726 0.914605 0.0328407 0.903113H0.0344828C0.0361248 0.903113 0.0377668 0.903113 0.0377668 0.900815C0.0377668 0.900815 0.0377668 0.898516 0.0394089 0.898516L0.0410509 0.896218C0.0426929 0.896218 0.0426929 0.896218 0.0410509 0.89392C0.044335 0.891621 0.0426929 0.896218 0.044335 0.89392C0.044335 0.89392 0.044335 0.89392 0.044335 0.896218C0.044335 0.898516 0.0426929 0.898516 0.0426929 0.898516C0.0410509 0.900815 0.045977 0.898516 0.044335 0.896218C0.044335 0.89392 0.044335 0.89392 0.045977 0.891621C0.045977 0.891621 0.047619 0.891621 0.047619 0.889323C0.047619 0.889323 0.047619 0.889323 0.0492611 0.891621C0.0492611 0.891621 0.0492611 0.891621 0.0492611 0.89392L0.047619 0.896218H0.0492611V0.898516C0.047619 0.900815 0.0492611 0.900815 0.0509031 0.900815C0.0509031 0.903113 0.0509031 0.905411 0.0509031 0.90771V0.905411C0.0541872 0.905411 0.0525452 0.898516 0.0541872 0.898516C0.0558292 0.900815 0.0574713 0.900815 0.0558292 0.898516C0.0558292 0.898516 0.0558292 0.898516 0.0541872 0.898516V0.896218H0.0558292C0.0574713 0.896218 0.0574713 0.896218 0.0574713 0.89392C0.0607553 0.89392 0.0607553 0.889323 0.0591133 0.887025C0.0591133 0.887025 0.0607553 0.887025 0.0607553 0.884726C0.0623974 0.884726 0.0607553 0.884726 0.0623974 0.884726C0.0623974 0.884726 0.0640394 0.884726 0.0640394 0.882428C0.0656814 0.877831 0.0689655 0.882428 0.0722496 0.880129C0.0738916 0.882428 0.0755337 0.880129 0.0738916 0.877831C0.0738916 0.877831 0.0738916 0.880129 0.0755337 0.880129C0.0771757 0.877831 0.0771757 0.880129 0.0788177 0.877831C0.0788177 0.877831 0.0788177 0.877831 0.0804598 0.877831C0.0821018 0.877831 0.0804598 0.880129 0.0804598 0.882428C0.0821018 0.882428 0.0821018 0.880129 0.0821018 0.880129C0.0821018 0.882428 0.0837438 0.880129 0.0837438 0.880129C0.0837438 0.880129 0.0837438 0.880129 0.0837438 0.877831C0.0837438 0.875533 0.0853859 0.875533 0.0853859 0.873234C0.0870279 0.870936 0.0886699 0.873234 0.0886699 0.870936C0.090312 0.873234 0.091954 0.873234 0.091954 0.868638C0.091954 0.868638 0.0935961 0.870936 0.0935961 0.868638C0.0935961 0.868638 0.0952381 0.868637 0.0952381 0.866339C0.0968801 0.866339 0.0985222 0.866339 0.100164 0.864041H0.101806C0.101806 0.866339 0.103448 0.864041 0.10509 0.866339C0.106732 0.866339 0.106732 0.866339 0.108374 0.866339C0.1133 0.868637 0.1133 0.870936 0.114943 0.873234V0.875533C0.1133 0.875533 0.111658 0.875533 0.110016 0.877831C0.108374 0.877831 0.106732 0.880129 0.10509 0.880129C0.108374 0.882428 0.111658 0.880129 0.1133 0.877831C0.1133 0.880129 0.1133 0.880129 0.111658 0.880129C0.119869 0.877831 0.126437 0.873234 0.131363 0.868638C0.133005 0.870936 0.134647 0.866339 0.136289 0.866339C0.136289 0.870936 0.131363 0.868638 0.131363 0.873234C0.134647 0.873234 0.136289 0.870936 0.139573 0.868638C0.139573 0.868638 0.139573 0.868638 0.137931 0.870936C0.133005 0.873234 0.128079 0.875533 0.124795 0.882428C0.106732 0.89392 0.134647 0.880129 0.139573 0.875533C0.141215 0.875533 0.142857 0.873234 0.144499 0.873234C0.144499 0.875533 0.146141 0.877831 0.146141 0.880129C0.146141 0.880129 0.146141 0.882428 0.144499 0.882428C0.144499 0.882428 0.144499 0.882428 0.144499 0.884726C0.146141 0.884726 0.146141 0.882428 0.146141 0.887025C0.146141 0.887025 0.144499 0.887025 0.144499 0.891621C0.144499 0.889323 0.146141 0.889323 0.147783 0.891621C0.147783 0.891621 0.147783 0.891621 0.149425 0.891621C0.147783 0.89392 0.147783 0.896218 0.144499 0.89392C0.144499 0.896218 0.144499 0.896218 0.142857 0.896218H0.141215C0.142857 0.896218 0.142857 0.89392 0.142857 0.891621C0.141215 0.891621 0.139573 0.89392 0.139573 0.89392C0.137931 0.89392 0.136289 0.896218 0.134647 0.898516C0.129721 0.896218 0.131363 0.900815 0.131363 0.903113C0.131363 0.905412 0.131363 0.905411 0.131363 0.90771C0.129721 0.90771 0.129721 0.90771 0.131363 0.910008C0.131363 0.912306 0.128079 0.910008 0.126437 0.914605C0.124795 0.914605 0.123153 0.914605 0.124795 0.916903V0.919202C0.124795 0.919202 0.124795 0.919202 0.126437 0.919202C0.131363 0.916903 0.141215 0.914605 0.142857 0.90771C0.142857 0.90771 0.142857 0.90771 0.144499 0.905411C0.144499 0.90771 0.146141 0.905411 0.147783 0.905411V0.90771C0.149425 0.90771 0.151067 0.905411 0.154351 0.905411H0.155993C0.155993 0.905411 0.155993 0.905411 0.155993 0.90771C0.154351 0.910008 0.151067 0.910008 0.149425 0.912306C0.147783 0.912306 0.144499 0.914605 0.142857 0.914605C0.141215 0.914605 0.141215 0.916903 0.139573 0.916903C0.137931 0.916903 0.137931 0.916903 0.136289 0.919202C0.134647 0.919202 0.133005 0.9215 0.133005 0.9215C0.133005 0.923798 0.128079 0.9215 0.128079 0.923798C0.128079 0.923798 0.131363 0.928395 0.131363 0.926097C0.133005 0.926097 0.134647 0.923798 0.136289 0.926097C0.137931 0.926097 0.139573 0.923798 0.141215 0.9215C0.142857 0.9215 0.146141 0.919202 0.147783 0.919202C0.149425 0.919202 0.149425 0.919202 0.149425 0.916903H0.151067L0.149425 0.919202C0.144499 0.919202 0.146141 0.928395 0.149425 0.932992C0.149425 0.93529 0.151067 0.932992 0.152709 0.93529C0.152709 0.939887 0.147783 0.937588 0.151067 0.942185V0.944484L0.149425 0.946782C0.151067 0.946782 0.151067 0.946782 0.152709 0.946782C0.155993 0.94908 0.159277 0.946782 0.164204 0.951379C0.164204 0.951379 0.164204 0.951379 0.165846 0.951379C0.170772 0.94908 0.174056 0.94908 0.178982 0.944484C0.18555 0.939887 0.192118 0.93529 0.198686 0.930693C0.200328 0.930693 0.20197 0.928395 0.203612 0.928395C0.203612 0.930693 0.206897 0.930693 0.205255 0.928395C0.206897 0.928395 0.206897 0.926097 0.208539 0.926097C0.208539 0.926097 0.208539 0.926097 0.208539 0.928395C0.208539 0.928395 0.210181 0.928395 0.208539 0.926097C0.208539 0.923798 0.210181 0.926097 0.211823 0.926097C0.215107 0.926097 0.216749 0.923798 0.220033 0.926097C0.220033 0.928395 0.220033 0.928395 0.218391 0.928395C0.216749 0.928395 0.213465 0.930693 0.213465 0.932992C0.213465 0.932992 0.213465 0.932992 0.211823 0.932992C0.211823 0.932992 0.211823 0.932992 0.210181 0.93529C0.203612 0.937588 0.200328 0.942185 0.19376 0.944484C0.192118 0.944484 0.192118 0.944484 0.190476 0.946782C0.188834 0.946782 0.187192 0.94908 0.18555 0.94908C0.183908 0.946782 0.183908 0.94908 0.183908 0.951379C0.182266 0.951379 0.180624 0.953677 0.180624 0.955975C0.178982 0.955975 0.17734 0.958274 0.175698 0.958274C0.170772 0.960572 0.167488 0.96287 0.162562 0.969766C0.164204 0.969766 0.165846 0.967467 0.167488 0.967467C0.16913 0.969766 0.16913 0.965169 0.170772 0.967467C0.175698 0.969766 0.170772 0.969766 0.170772 0.974362H0.172414C0.172414 0.976661 0.174056 0.978959 0.174056 0.974362H0.175698C0.175698 0.974362 0.174056 0.974362 0.175698 0.976661C0.17734 0.974362 0.17734 0.974362 0.178982 0.974362C0.178982 0.976661 0.180624 0.974362 0.182266 0.974362C0.183908 0.976661 0.18555 0.974362 0.182266 0.972064C0.182266 0.972064 0.182266 0.972064 0.182266 0.969766C0.182266 0.967467 0.183908 0.969766 0.18555 0.969766C0.18555 0.972064 0.187192 0.972064 0.187192 0.969766C0.187192 0.969766 0.187192 0.969766 0.187192 0.967467C0.187192 0.967467 0.188834 0.967467 0.188834 0.965169C0.190476 0.965169 0.192118 0.962871 0.19376 0.962871C0.195402 0.962871 0.20197 0.955976 0.200328 0.962871C0.203612 0.962871 0.20197 0.960572 0.205255 0.958274C0.205255 0.958274 0.205255 0.958274 0.206897 0.958274C0.208539 0.958274 0.208539 0.958274 0.210181 0.958274C0.210181 0.958274 0.210181 0.958274 0.211823 0.958274C0.213465 0.958274 0.215107 0.955975 0.216749 0.955975C0.220033 0.955975 0.223317 0.953677 0.226601 0.951379C0.228243 0.951379 0.228243 0.951379 0.229885 0.951379C0.231527 0.951379 0.234811 0.94908 0.236453 0.946782C0.238095 0.946782 0.239737 0.946782 0.241379 0.944484C0.241379 0.944484 0.241379 0.944484 0.243021 0.944484C0.243021 0.944484 0.243021 0.944484 0.243021 0.946782C0.238095 0.951379 0.229885 0.953677 0.224959 0.958274H0.223317C0.221675 0.958274 0.221675 0.958274 0.220033 0.960572C0.218391 0.960572 0.218391 0.960572 0.218391 0.962871C0.216749 0.965169 0.215107 0.962871 0.215107 0.965169C0.213465 0.965169 0.211823 0.960572 0.213465 0.965169C0.215107 0.962871 0.220033 0.965169 0.220033 0.960572C0.221675 0.960572 0.221675 0.960572 0.221675 0.958274C0.223317 0.958274 0.223317 0.958274 0.224959 0.958274C0.228243 0.958274 0.233169 0.951379 0.238095 0.953677C0.239737 0.955975 0.238095 0.953677 0.239737 0.953677C0.244663 0.94908 0.252874 0.94908 0.2578 0.942185C0.261084 0.942185 0.262726 0.939887 0.26601 0.937589H0.267652C0.269294 0.93529 0.270936 0.937588 0.272578 0.93529C0.27422 0.932992 0.275862 0.932992 0.279146 0.930693L0.277504 0.932992C0.275862 0.93529 0.275862 0.937589 0.27422 0.937589C0.27422 0.939887 0.275862 0.939887 0.275862 0.939887C0.27422 0.937589 0.270936 0.944484 0.269294 0.946782C0.267652 0.951379 0.264368 0.951379 0.262726 0.955975C0.26601 0.953677 0.270936 0.951379 0.272578 0.94908C0.275862 0.951379 0.280788 0.946782 0.280788 0.944484H0.28243C0.285714 0.946782 0.284072 0.937588 0.285714 0.93529C0.285714 0.93529 0.287356 0.932992 0.287356 0.930693H0.285714C0.285714 0.928395 0.287356 0.926097 0.287356 0.926097L0.288998 0.923798C0.288998 0.923798 0.288998 0.923798 0.29064 0.923798C0.293924 0.923798 0.295567 0.919202 0.298851 0.919202C0.298851 0.919202 0.298851 0.919202 0.298851 0.9215C0.300493 0.9215 0.300493 0.919202 0.300493 0.919202C0.300493 0.919202 0.300493 0.919202 0.302135 0.916903C0.303777 0.916903 0.303777 0.916903 0.305419 0.914605C0.307061 0.914605 0.307061 0.912306 0.308703 0.912306C0.311987 0.912306 0.313629 0.912306 0.313629 0.90771H0.315271C0.316913 0.90771 0.316913 0.90771 0.316913 0.905411C0.315271 0.903113 0.315271 0.903113 0.313629 0.905411H0.315271C0.316913 0.905411 0.320197 0.900815 0.321839 0.898516C0.321839 0.898516 0.321839 0.898516 0.323481 0.898516C0.323481 0.898516 0.321839 0.898516 0.323481 0.896218C0.325123 0.896218 0.326765 0.89392 0.326765 0.89392H0.328407C0.330049 0.896218 0.331691 0.89392 0.333333 0.89392C0.330049 0.896218 0.338259 0.916903 0.341544 0.90771C0.341544 0.910008 0.343186 0.90771 0.343186 0.90771C0.341544 0.910008 0.344828 0.90771 0.344828 0.90771C0.344828 0.90771 0.344828 0.905411 0.34647 0.90771C0.34647 0.910008 0.344828 0.910008 0.343186 0.910008C0.343186 0.910008 0.343186 0.90771 0.341544 0.90771C0.341544 0.916903 0.348112 0.93529 0.35468 0.923798H0.356322C0.357964 0.923798 0.359606 0.923798 0.359606 0.9215C0.359606 0.9215 0.359606 0.919202 0.361248 0.919202L0.36289 0.916903C0.364532 0.916903 0.364532 0.916903 0.36289 0.914605C0.366174 0.912307 0.364532 0.916903 0.366174 0.914605C0.366174 0.914605 0.366174 0.914605 0.366174 0.916903C0.366174 0.919202 0.364532 0.919202 0.364532 0.919202C0.36289 0.9215 0.367816 0.919202 0.366174 0.916903C0.366174 0.914605 0.366174 0.914605 0.367816 0.912306C0.367816 0.912306 0.369458 0.912306 0.369458 0.910008C0.369458 0.910008 0.369458 0.910008 0.3711 0.912306C0.3711 0.912306 0.3711 0.912307 0.3711 0.914605L0.369458 0.916903H0.3711V0.919202C0.369458 0.9215 0.3711 0.9215 0.372742 0.9215C0.372742 0.923798 0.372742 0.926097 0.372742 0.928395V0.926097C0.376026 0.926097 0.374384 0.919202 0.376026 0.919202C0.377668 0.9215 0.37931 0.9215 0.377668 0.919202C0.377668 0.919202 0.377668 0.919202 0.376026 0.919202V0.916903H0.377668C0.37931 0.916903 0.37931 0.916903 0.37931 0.914605C0.382594 0.914605 0.382594 0.910008 0.380952 0.90771C0.380952 0.90771 0.382594 0.90771 0.382594 0.905411C0.384236 0.905411 0.382594 0.905411 0.384236 0.905411C0.384236 0.905411 0.385878 0.905412 0.385878 0.903113C0.387521 0.898516 0.390805 0.903113 0.394089 0.900815C0.395731 0.903113 0.397373 0.900815 0.395731 0.898516C0.395731 0.898516 0.395731 0.900815 0.397373 0.900815C0.399015 0.898516 0.399015 0.900815 0.400657 0.898516C0.400657 0.898516 0.400657 0.898516 0.402299 0.898516C0.403941 0.898516 0.402299 0.900815 0.402299 0.903113C0.403941 0.903113 0.403941 0.900815 0.403941 0.900815C0.403941 0.903113 0.405583 0.900815 0.405583 0.900815C0.405583 0.900815 0.405583 0.900815 0.405583 0.898516C0.405583 0.896218 0.407225 0.896218 0.407225 0.89392C0.408867 0.891621 0.410509 0.89392 0.410509 0.891621C0.412151 0.89392 0.413793 0.893919 0.413793 0.889323C0.413793 0.889323 0.415435 0.891621 0.415435 0.889323C0.415435 0.889323 0.417077 0.889323 0.417077 0.887025C0.418719 0.887025 0.420361 0.887025 0.422003 0.884726H0.423645C0.423645 0.887025 0.425287 0.884726 0.426929 0.887025C0.428571 0.887025 0.428571 0.887025 0.430213 0.887025C0.431856 0.889323 0.431855 0.891621 0.431855 0.89392V0.896218C0.430213 0.896218 0.428571 0.896218 0.426929 0.898516C0.425287 0.898516 0.423645 0.900815 0.422003 0.900815C0.425287 0.903113 0.428571 0.900815 0.430213 0.898516C0.430213 0.900815 0.430213 0.900815 0.428571 0.900815C0.43514 0.898516 0.440066 0.893919 0.446634 0.889323C0.448276 0.891621 0.449918 0.887025 0.45156 0.887025C0.45156 0.891621 0.446634 0.889323 0.446634 0.89392C0.449918 0.89392 0.45156 0.891621 0.454844 0.889323C0.454844 0.889323 0.454844 0.889323 0.453202 0.891621C0.448276 0.89392 0.44335 0.896218 0.440066 0.903113C0.422003 0.914605 0.449918 0.900815 0.454844 0.896218C0.456486 0.896218 0.458128 0.89392 0.45977 0.89392C0.45977 0.896218 0.461412 0.898516 0.461412 0.900815C0.461412 0.900815 0.461412 0.903113 0.45977 0.903113C0.45977 0.903113 0.45977 0.903113 0.45977 0.905411C0.461412 0.905411 0.461412 0.903113 0.461412 0.90771C0.461412 0.90771 0.45977 0.90771 0.45977 0.912306C0.45977 0.910008 0.461412 0.910008 0.463054 0.912306C0.463054 0.912306 0.463054 0.912306 0.464696 0.912306C0.463054 0.914605 0.463054 0.916903 0.45977 0.914605C0.45977 0.916903 0.45977 0.916903 0.458128 0.916903H0.456486C0.458128 0.916903 0.458128 0.914605 0.458128 0.912306C0.456486 0.912306 0.454844 0.914605 0.454844 0.914605C0.453202 0.914605 0.45156 0.916903 0.449918 0.919202C0.446634 0.919202 0.446634 0.923798 0.446634 0.928395C0.446634 0.930693 0.446634 0.930693 0.446634 0.932992C0.444992 0.932992 0.444992 0.932992 0.446634 0.93529C0.446634 0.937588 0.44335 0.93529 0.441708 0.939887C0.440066 0.939887 0.438424 0.939887 0.440066 0.942185V0.944484C0.440066 0.944484 0.440066 0.944484 0.441708 0.944484C0.446634 0.942185 0.456486 0.939887 0.458128 0.932992C0.458128 0.932992 0.458128 0.932992 0.45977 0.930693C0.45977 0.932992 0.461412 0.930693 0.463054 0.930693V0.932992C0.464696 0.932992 0.466338 0.930693 0.469622 0.930693H0.471264C0.471264 0.930693 0.471264 0.930693 0.471264 0.932992C0.469622 0.93529 0.466338 0.93529 0.464696 0.937589C0.463054 0.937589 0.45977 0.939887 0.458128 0.939887C0.456486 0.939887 0.456486 0.942185 0.454844 0.942185C0.453202 0.942185 0.453202 0.942185 0.45156 0.944484C0.449918 0.944484 0.448276 0.946782 0.448276 0.946782C0.448276 0.94908 0.44335 0.946782 0.44335 0.94908C0.44335 0.94908 0.446634 0.953677 0.446634 0.951379C0.448276 0.951379 0.449918 0.94908 0.45156 0.951379C0.453202 0.951379 0.454844 0.94908 0.456486 0.946782C0.458128 0.946782 0.461412 0.944484 0.463054 0.944484C0.464696 0.944484 0.464696 0.944484 0.464696 0.942185H0.466338L0.464696 0.944484H0.463054C0.461412 0.94908 0.463054 0.953677 0.464696 0.955975C0.464696 0.958274 0.466338 0.955975 0.46798 0.958274C0.46798 0.962871 0.463054 0.960572 0.466338 0.965169V0.967467L0.464696 0.969766C0.466338 0.969766 0.466338 0.969766 0.46798 0.969766C0.469622 0.972064 0.472906 0.972064 0.47619 0.972064C0.477832 0.972064 0.477833 0.976661 0.479475 0.974362C0.479475 0.974362 0.479475 0.974362 0.481117 0.974362C0.486043 0.972064 0.489327 0.972064 0.494253 0.967467C0.500821 0.96287 0.507389 0.958274 0.513957 0.953677C0.515599 0.953677 0.517241 0.951379 0.518883 0.951379C0.518883 0.953677 0.522167 0.953677 0.520525 0.951379C0.522167 0.951379 0.522167 0.94908 0.523809 0.94908C0.523809 0.94908 0.523809 0.94908 0.523809 0.951379C0.523809 0.951379 0.525452 0.951379 0.523809 0.94908C0.523809 0.946782 0.525452 0.94908 0.527094 0.94908C0.530378 0.94908 0.53202 0.946782 0.535304 0.94908C0.535304 0.951379 0.535304 0.951379 0.533662 0.951379C0.53202 0.951379 0.53202 0.951379 0.530378 0.953677C0.528736 0.953677 0.528736 0.955975 0.527094 0.955975C0.527094 0.955975 0.527094 0.955975 0.525452 0.955975C0.525452 0.955975 0.525452 0.955975 0.523809 0.958274C0.517241 0.960572 0.513957 0.965169 0.507389 0.967467C0.505747 0.967467 0.505747 0.967467 0.504105 0.969766C0.502463 0.969766 0.500821 0.972064 0.499179 0.972064C0.497537 0.969766 0.497537 0.972064 0.497537 0.974362C0.495895 0.974362 0.494253 0.976661 0.494253 0.978959C0.492611 0.978959 0.490969 0.981257 0.489327 0.981257C0.484401 0.983556 0.481117 0.985854 0.47619 0.992749C0.477832 0.992749 0.479475 0.990451 0.481117 0.990451C0.482759 0.992749 0.482759 0.988153 0.484401 0.990451C0.489327 0.992749 0.484401 0.992749 0.484401 0.997346H0.486043C0.486043 0.999644 0.487685 1.00194 0.487685 0.997346H0.489327C0.489327 0.997346 0.487685 0.997346 0.489327 0.999644C0.490969 0.997346 0.490969 0.997346 0.492611 0.997346C0.492611 0.999644 0.494253 0.997346 0.495895 0.997346C0.497537 0.999644 0.499179 0.997346 0.495895 0.995048C0.495895 0.995048 0.495895 0.995048 0.495895 0.992749C0.495895 0.990451 0.497537 0.992749 0.499179 0.992749C0.499179 0.995048 0.500821 0.995048 0.500821 0.992749C0.500821 0.992749 0.500821 0.992749 0.500821 0.990451C0.500821 0.990451 0.502463 0.990451 0.502463 0.988153C0.504105 0.988153 0.505747 0.985854 0.507389 0.985854C0.509031 0.985854 0.515599 0.978959 0.513957 0.985854C0.517241 0.985854 0.515599 0.983556 0.518883 0.981257C0.518883 0.981257 0.518883 0.981257 0.520525 0.981257C0.522167 0.981257 0.522167 0.981257 0.523809 0.981257C0.523809 0.981257 0.52381 0.981257 0.525452 0.981257C0.527094 0.981257 0.528736 0.978959 0.530378 0.978959C0.533662 0.978959 0.536946 0.976661 0.54023 0.974362C0.541872 0.974362 0.541872 0.974362 0.543514 0.974362C0.545156 0.974362 0.54844 0.972064 0.550082 0.969766C0.551724 0.969766 0.553366 0.969766 0.555008 0.967467C0.555008 0.967467 0.555008 0.967467 0.55665 0.967467C0.55665 0.967467 0.55665 0.967467 0.55665 0.969766C0.551724 0.974362 0.543514 0.976661 0.538588 0.981257H0.536946C0.535304 0.981257 0.535304 0.981258 0.533662 0.983556C0.53202 0.983556 0.53202 0.983556 0.53202 0.985854C0.530378 0.988153 0.528736 0.985854 0.528736 0.988153C0.527094 0.988153 0.525452 0.983556 0.527094 0.988153C0.528736 0.985854 0.533662 0.988153 0.533662 0.983556C0.535304 0.983556 0.535304 0.983556 0.535304 0.981257C0.536946 0.981257 0.536946 0.981257 0.538588 0.981257C0.541872 0.981257 0.546798 0.974362 0.551724 0.976661C0.553366 0.978959 0.551724 0.976661 0.553366 0.976661C0.558292 0.972064 0.566502 0.972064 0.571429 0.965169C0.574713 0.965169 0.576355 0.962871 0.579639 0.960572H0.581281C0.582923 0.958274 0.584565 0.960572 0.586207 0.958274C0.587849 0.955975 0.589491 0.955975 0.592775 0.953677L0.591133 0.955975C0.589491 0.958274 0.589491 0.960572 0.587849 0.960572C0.587849 0.962871 0.589491 0.962871 0.589491 0.962871C0.587849 0.960572 0.584565 0.967467 0.582923 0.969766C0.581281 0.974362 0.577997 0.974362 0.576355 0.978959C0.579639 0.976661 0.584565 0.974362 0.586207 0.972064C0.589491 0.974362 0.594417 0.969766 0.594417 0.967467H0.596059C0.599343 0.969766 0.597701 0.960572 0.599343 0.958274C0.599343 0.958274 0.600985 0.955975 0.600985 0.953677H0.599343C0.599343 0.951379 0.600985 0.94908 0.600985 0.94908C0.574713 0.919202 0.574713 0.919202 0.574713 0.919202C0.574713 0.919202 0.574713 0.919202 0.576355 0.919202C0.579639 0.9215 0.581281 0.914605 0.584565 0.916903C0.584565 0.916903 0.584565 0.916903 0.584565 0.919202C0.586207 0.919202 0.586207 0.916903 0.586207 0.916903C0.586207 0.916903 0.586207 0.916903 0.587849 0.914605C0.589491 0.914605 0.589491 0.914605 0.591133 0.912306C0.592775 0.912306 0.592775 0.910008 0.594417 0.910008C0.597701 0.910008 0.599343 0.910008 0.599343 0.905411H0.600985C0.602627 0.905411 0.602627 0.905412 0.602627 0.903113C0.600985 0.900815 0.600985 0.900815 0.599343 0.903113H0.600985C0.602627 0.903113 0.605911 0.898516 0.607553 0.896218C0.607553 0.896218 0.607553 0.896218 0.609195 0.896218C0.609195 0.896218 0.607553 0.896218 0.609195 0.89392C0.610837 0.89392 0.612479 0.891621 0.612479 0.891621C0.612479 0.889323 0.610837 0.889323 0.609195 0.889323C0.610837 0.887024 0.614121 0.887025 0.615764 0.884726C0.617406 0.887025 0.619048 0.882428 0.622332 0.882428C0.62069 0.882428 0.62069 0.884726 0.62069 0.887025H0.619048C0.617406 0.884726 0.615764 0.887024 0.615764 0.889323C0.614121 0.889323 0.614121 0.889323 0.612479 0.891621C0.612479 0.89392 0.614121 0.89392 0.615764 0.891621C0.617406 0.89392 0.619048 0.891621 0.62069 0.891621C0.617406 0.89392 0.625616 0.914605 0.6289 0.905411C0.6289 0.90771 0.630542 0.905411 0.630542 0.905411C0.6289 0.90771 0.632184 0.905411 0.632184 0.905411C0.632184 0.905411 0.632184 0.903113 0.633826 0.905411C0.633826 0.90771 0.632184 0.90771 0.630542 0.90771C0.630542 0.90771 0.630542 0.905411 0.6289 0.905411C0.6289 0.914605 0.635468 0.932992 0.642036 0.9215H0.643678C0.64532 0.9215 0.646962 0.9215 0.646962 0.919202C0.646962 0.919202 0.646962 0.916903 0.648604 0.916903L0.650246 0.914605C0.651888 0.914605 0.651888 0.914605 0.650246 0.912306C0.65353 0.910008 0.651888 0.914605 0.65353 0.912306C0.65353 0.912306 0.65353 0.912307 0.65353 0.914605C0.65353 0.916903 0.651888 0.916903 0.651888 0.916903C0.650246 0.919202 0.655172 0.916903 0.65353 0.914605C0.65353 0.912307 0.65353 0.912306 0.655172 0.910008C0.655172 0.910008 0.656814 0.910008 0.656814 0.90771C0.656814 0.90771 0.656814 0.90771 0.658456 0.910008C0.658456 0.910008 0.658456 0.910008 0.658456 0.912306L0.656814 0.914605H0.658456V0.916903C0.656814 0.919202 0.658457 0.919202 0.660099 0.919202C0.660099 0.9215 0.660099 0.932992 0.660099 0.926097V0.923798C0.663383 0.923798 0.661741 0.916903 0.663383 0.916903C0.665025 0.919202 0.666667 0.919202 0.665025 0.916903C0.665025 0.916903 0.665025 0.916903 0.663383 0.916903V0.914605H0.665025C0.666667 0.914605 0.666667 0.914605 0.666667 0.912306C0.669951 0.912306 0.669951 0.90771 0.668309 0.905411C0.668309 0.905411 0.669951 0.905412 0.669951 0.903113C0.671593 0.903113 0.669951 0.903113 0.671593 0.903113C0.671593 0.903113 0.673235 0.903113 0.673235 0.900815C0.674877 0.896218 0.678161 0.900815 0.681445 0.898516C0.683087 0.900815 0.684729 0.898516 0.683087 0.896218C0.683087 0.896218 0.683087 0.898516 0.684729 0.898516C0.686371 0.896218 0.686371 0.898516 0.688013 0.896218C0.688013 0.896218 0.688013 0.896218 0.689655 0.896218C0.691297 0.896218 0.689655 0.898516 0.689655 0.900815C0.691297 0.900815 0.691297 0.898516 0.691297 0.898516C0.691297 0.900815 0.692939 0.898516 0.692939 0.898516C0.692939 0.898516 0.692939 0.898516 0.692939 0.896218C0.692939 0.89392 0.694581 0.89392 0.694581 0.891621C0.696223 0.889323 0.697865 0.891621 0.697865 0.889323C0.699507 0.891621 0.701149 0.891621 0.701149 0.887025C0.701149 0.887025 0.702791 0.889323 0.702791 0.887025C0.702791 0.887025 0.704434 0.887025 0.704434 0.884726C0.706076 0.884726 0.707718 0.884726 0.70936 0.882428H0.711002C0.711002 0.884726 0.712644 0.882428 0.714286 0.884726C0.715928 0.884726 0.715928 0.884726 0.71757 0.884726C0.719212 0.887025 0.719212 0.889323 0.719212 0.891621V0.89392C0.71757 0.89392 0.715928 0.89392 0.714286 0.896218C0.712644 0.896218 0.711002 0.898516 0.70936 0.898516C0.712644 0.900815 0.715928 0.898516 0.71757 0.896218C0.71757 0.898516 0.71757 0.898516 0.715928 0.898516C0.722496 0.896218 0.727422 0.891621 0.73399 0.887025C0.735632 0.889323 0.737274 0.884726 0.738916 0.884726C0.738916 0.889323 0.73399 0.887025 0.73399 0.891621C0.737274 0.891621 0.738916 0.889323 0.7422 0.887025C0.7422 0.887025 0.7422 0.887024 0.740558 0.889323C0.735632 0.891621 0.730706 0.89392 0.727422 0.900815C0.70936 0.912306 0.737274 0.898516 0.7422 0.89392C0.743842 0.89392 0.745484 0.891621 0.747126 0.891621C0.747126 0.89392 0.748768 0.896218 0.748768 0.898516C0.748768 0.898516 0.748768 0.900815 0.747126 0.900815C0.747126 0.900815 0.747126 0.900815 0.747126 0.903113C0.748768 0.903113 0.748768 0.900815 0.748768 0.905411C0.748768 0.905411 0.747126 0.905411 0.747126 0.910008C0.747126 0.90771 0.748768 0.90771 0.75041 0.910008C0.75041 0.910008 0.75041 0.910008 0.752052 0.910008C0.75041 0.912306 0.750411 0.914605 0.747126 0.912306C0.747126 0.914605 0.747126 0.914605 0.745484 0.914605H0.743842C0.745484 0.914605 0.745484 0.912306 0.745484 0.910008C0.743842 0.910008 0.7422 0.912306 0.7422 0.912306C0.740558 0.912306 0.738916 0.914605 0.737274 0.916903C0.73399 0.916903 0.73399 0.9215 0.73399 0.926097C0.73399 0.928395 0.73399 0.928395 0.73399 0.930693C0.732348 0.930693 0.732348 0.930693 0.73399 0.932992C0.73399 0.93529 0.730706 0.932992 0.729064 0.937589C0.727422 0.937589 0.72578 0.937589 0.727422 0.939887V0.942185C0.727422 0.942185 0.727422 0.942185 0.729064 0.942185C0.73399 0.939887 0.743842 0.937589 0.745484 0.930693C0.745484 0.930693 0.745484 0.930693 0.747126 0.928395C0.747126 0.930693 0.748768 0.928395 0.75041 0.928395V0.930693C0.752053 0.930693 0.753695 0.928395 0.756979 0.928395H0.758621C0.758621 0.928395 0.758621 0.928395 0.758621 0.930693C0.756979 0.932992 0.753695 0.932992 0.752052 0.93529C0.75041 0.93529 0.747126 0.937589 0.745484 0.937589C0.743842 0.937589 0.740558 0.939887 0.738916 0.942185C0.737274 0.942185 0.735632 0.944484 0.735632 0.944484C0.735632 0.946782 0.730706 0.944484 0.730706 0.946782C0.730706 0.946782 0.73399 0.951379 0.73399 0.94908C0.735632 0.94908 0.737274 0.946782 0.738916 0.94908C0.740558 0.94908 0.7422 0.946782 0.743842 0.944484C0.745484 0.944484 0.748768 0.942185 0.75041 0.942185C0.752053 0.942185 0.752052 0.942185 0.752052 0.939887H0.753695L0.752052 0.942185H0.75041C0.748768 0.946782 0.75041 0.951379 0.752052 0.953677C0.752052 0.955975 0.753695 0.953677 0.755337 0.955975C0.755337 0.960572 0.750411 0.958274 0.753695 0.962871V0.965169L0.752052 0.967467C0.753695 0.967467 0.753695 0.967467 0.755337 0.967467C0.758621 0.969766 0.761905 0.967467 0.766831 0.972064C0.766831 0.972064 0.766831 0.972064 0.768473 0.972064C0.773399 0.969766 0.776683 0.969766 0.781609 0.965169C0.788177 0.960572 0.794745 0.955976 0.801314 0.951379C0.802956 0.951379 0.804598 0.94908 0.80624 0.94908C0.80624 0.951379 0.809524 0.951379 0.807882 0.94908C0.809524 0.94908 0.809524 0.946782 0.811166 0.946782C0.811166 0.946782 0.811166 0.946782 0.811166 0.94908C0.811166 0.94908 0.812808 0.94908 0.811166 0.946782C0.811166 0.944484 0.812808 0.946782 0.81445 0.946782C0.817734 0.946782 0.819376 0.944484 0.82266 0.946782C0.82266 0.94908 0.82266 0.94908 0.821018 0.94908C0.819376 0.94908 0.819376 0.94908 0.817734 0.951379C0.816092 0.951379 0.816092 0.953677 0.81445 0.953677C0.81445 0.953677 0.81445 0.953677 0.812808 0.953677C0.812808 0.953677 0.812808 0.953677 0.811166 0.955975C0.804598 0.958274 0.801314 0.962871 0.794745 0.965169C0.791461 0.965169 0.789819 0.969766 0.786535 0.969766C0.784893 0.967467 0.784893 0.969766 0.784893 0.972064C0.781609 0.974362 0.778325 0.976661 0.776683 0.978959C0.771757 0.981257 0.768473 0.983556 0.763547 0.990451C0.765189 0.990451 0.766831 0.988153 0.768473 0.988153C0.770115 0.990451 0.770115 0.988153 0.771757 0.988153C0.776683 0.990451 0.771757 0.990451 0.771757 0.995048H0.773399C0.773399 0.997346 0.775041 0.999645 0.775041 0.995048H0.776683C0.776683 0.995048 0.775041 0.995048 0.776683 0.997346C0.778325 0.995048 0.778325 0.995048 0.779967 0.995048C0.779967 0.997346 0.781609 0.995048 0.783251 0.995048C0.784893 0.997346 0.786535 0.995048 0.783251 0.992749C0.783251 0.992749 0.783251 0.992749 0.783251 0.990451C0.783251 0.988153 0.784893 0.990451 0.786535 0.990451C0.786535 0.992749 0.788177 0.992749 0.788177 0.990451C0.788177 0.990451 0.788177 0.990451 0.788177 0.988153C0.788177 0.988153 0.789819 0.988153 0.789819 0.985854C0.791461 0.985854 0.793103 0.983556 0.794745 0.983556C0.796388 0.983556 0.802956 0.976661 0.801314 0.983556C0.804598 0.983556 0.802956 0.981257 0.80624 0.978959C0.80624 0.978959 0.80624 0.978959 0.807882 0.978959C0.809524 0.978959 0.809524 0.978959 0.811166 0.978959C0.811166 0.978959 0.811166 0.978959 0.812808 0.978959C0.81445 0.978959 0.816092 0.976661 0.817734 0.976661C0.821018 0.976661 0.824302 0.974362 0.827586 0.972064C0.829228 0.972064 0.829228 0.972064 0.83087 0.972064C0.832512 0.972064 0.835796 0.969766 0.837438 0.967467C0.83908 0.967467 0.840722 0.967467 0.842365 0.965169C0.842365 0.965169 0.842365 0.965169 0.844007 0.967467C0.844007 0.967467 0.844007 0.967467 0.844007 0.969766C0.83908 0.974362 0.83087 0.976661 0.825944 0.981257H0.824302C0.82266 0.981257 0.82266 0.981258 0.821018 0.983556C0.819376 0.983556 0.819376 0.983556 0.819376 0.985854C0.817734 0.988153 0.816092 0.985854 0.816092 0.988153C0.81445 0.988153 0.812808 0.983556 0.81445 0.988153C0.816092 0.985854 0.821018 0.988153 0.821018 0.983556C0.82266 0.983556 0.82266 0.983556 0.82266 0.981257C0.824302 0.981257 0.824302 0.981257 0.825944 0.981257C0.829228 0.981257 0.834154 0.974362 0.83908 0.976661C0.840722 0.978959 0.83908 0.976661 0.840723 0.976661C0.845649 0.972064 0.853859 0.972064 0.858785 0.965169C0.862069 0.965169 0.863711 0.962871 0.866995 0.960572H0.868637C0.870279 0.958274 0.871921 0.960572 0.873563 0.958274C0.875205 0.955975 0.876847 0.955975 0.880131 0.953677L0.878489 0.955975C0.876847 0.958274 0.876847 0.960572 0.875205 0.960572C0.875205 0.962871 0.876847 0.962871 0.876847 0.962871C0.875205 0.960572 0.871921 0.967467 0.870279 0.969766C0.868637 0.974362 0.865353 0.974362 0.863711 0.978959C0.866995 0.976661 0.871921 0.974362 0.873563 0.972064C0.876847 0.974362 0.880131 0.969766 0.881773 0.967467C0.881773 0.967467 0.881773 0.967467 0.881773 0.965169H0.883415C0.886699 0.967467 0.885057 0.958274 0.886699 0.955975C0.886699 0.955975 0.888341 0.953677 0.888341 0.951379H0.886699C0.886699 0.94908 0.888341 0.946782 0.888341 0.946782L0.889984 0.944484C0.889984 0.944484 0.889984 0.944484 0.891626 0.944484C0.89491 0.946782 0.896552 0.939887 0.899836 0.942185C0.899836 0.942185 0.899836 0.942185 0.899836 0.944484C0.901478 0.944484 0.901478 0.942185 0.901478 0.942185C0.901478 0.942185 0.901478 0.942185 0.90312 0.939887C0.904762 0.939887 0.904762 0.939887 0.906404 0.937589C0.908046 0.937589 0.908046 0.93529 0.909688 0.93529C0.912972 0.93529 0.914614 0.93529 0.914614 0.930693H0.916256C0.917898 0.930693 0.917898 0.930693 0.917898 0.928395C0.916256 0.926097 0.916256 0.926097 0.914614 0.928395H0.916256C0.917898 0.928395 0.921182 0.923798 0.922824 0.9215C0.922824 0.9215 0.922824 0.9215 0.924466 0.9215C0.924466 0.9215 0.922824 0.9215 0.924466 0.919202C0.926108 0.919202 0.92775 0.916903 0.92775 0.916903C0.92775 0.914605 0.926108 0.914605 0.924466 0.914605C0.926108 0.912307 0.929392 0.912306 0.931034 0.910008C0.932676 0.912306 0.934319 0.90771 0.937603 0.90771C0.935961 0.90771 0.935961 0.910008 0.935961 0.912306H0.934319C0.932677 0.910008 0.931034 0.912307 0.931034 0.914605C0.929392 0.914605 0.929392 0.914605 0.92775 0.916903C0.92775 0.919202 0.929392 0.919202 0.931034 0.916903C0.932676 0.919202 0.934319 0.916903 0.935961 0.916903C0.937603 0.916903 0.937603 0.916903 0.937603 0.916903C0.937603 0.916903 0.937603 0.916903 0.939245 0.914605C0.940887 0.916903 0.942529 0.914605 0.944171 0.914605H0.945813C0.945813 0.914605 0.945813 0.914605 0.945813 0.912306C0.945813 0.912306 0.945813 0.912307 0.945813 0.914605C0.947455 0.912307 0.950739 0.912306 0.952381 0.910008C0.954023 0.910008 0.957307 0.90771 0.958949 0.905411C0.958949 0.905411 0.958949 0.905411 0.960591 0.905411C0.962233 0.905411 0.965517 0.903113 0.967159 0.900815C0.968801 0.900815 0.970443 0.898516 0.970443 0.898516C0.970443 0.898516 0.970443 0.898516 0.972085 0.898516H0.973727H0.975369C0.975369 0.896218 0.977011 0.898516 0.978653 0.898516C0.981938 0.896218 0.985222 0.89392 0.990148 0.891621C0.993432 0.891621 0.996716 0.889323 1 0.887025V0H0Z" fill="#FFCE00"/>
</svg>
